<svg fill="none" xmlns="http://www.w3.org/2000/svg" viewBox="0 0 16 16" class="design-iconfont">
  <path d="M1.33203 11.9997H2.33203V2.33301H11.9987V1.33301H1.9987C1.63051 1.33301 1.33203 1.63148 1.33203 1.99967V11.9997Z" fill="#576B95"/>
  <path d="M9.33203 8.33301H11.6654V9.33301H9.33203V11.6663H8.33203V9.33301H5.9987V8.33301H8.33203V5.99967H9.33203V8.33301Z" fill="#576B95"/>
  <path fill-rule="evenodd" clip-rule="evenodd" d="M13.6654 3.33301C14.0336 3.33301 14.332 3.63148 14.332 3.99967V13.6663C14.332 14.0345 14.0336 14.333 13.6654 14.333H3.9987C3.63051 14.333 3.33203 14.0345 3.33203 13.6663V3.99967C3.33203 3.63148 3.63051 3.33301 3.9987 3.33301H13.6654ZM13.332 4.33301H4.33203V13.333H13.332V4.33301Z" fill="#576B95"/>
</svg>
