<svg xmlns="http://www.w3.org/2000/svg" xmlns:xlink="http://www.w3.org/1999/xlink" style="vertical-align:-.63ex" width="2.509ex" height="2.884ex" viewBox="0 -970.7 1080.4 1241.8"><defs><path id="a" stroke-width="1" d="M576-125q0-22-29-50t-60-29h-11q-82 0-113 47-29 43-70 183l-9 33q-1-1-36-40t-78-85-78-85-39-40q-4-3-10-3-7 0-12 5t-6 12 13 23T151-30l121 132-7 29q-76 274-130 274-31 0-48-47-1-7-19-7-20 0-20 10 0 8 8 25t33 37 59 19q76 0 110-42 18-25 39-80t33-98l11-42q3 0 114 123t118 126q6 2 9 2 18 0 18-17 0-7-13-22T477 270Q356 138 353 134l9-32q30-112 66-191t62-79q14 0 27 12t19 30q3 10 7 11t14 1 14-1q5-3 5-10z"/><path id="b" stroke-width="1" d="M109 429q-27 0-43 18t-16 44q0 71 53 123t132 52q91 0 152-56t62-145q0-43-20-82t-48-68-80-74q-36-31-100-92l-59-56 76-1q157 0 167 5 7 2 24 89v3h40v-3q-1-3-13-91T421 3V0H50v31q0 7 6 15t30 35q29 32 50 56 9 10 34 37t34 37 29 33 28 34 23 30 21 32 15 29 13 32 7 30 3 33q0 63-34 109t-97 46q-33 0-58-17t-35-33-10-19q0-1 5-1 18 0 37-14t19-46q0-25-16-42t-45-18z"/></defs><g fill="currentColor" stroke="currentColor" stroke-width="0" transform="scale(1 -1)"><use xlink:href="#a"/><use x="886" y="583" transform="scale(.707)" xlink:href="#b"/></g></svg>